<?xml version="1.0" encoding="UTF-8" standalone="no"?>
<!-- Created with Inkscape (http://www.inkscape.org/) -->

<svg
   xmlns:dc="http://purl.org/dc/elements/1.1/"
   xmlns:cc="http://creativecommons.org/ns#"
   xmlns:rdf="http://www.w3.org/1999/02/22-rdf-syntax-ns#"
   xmlns:svg="http://www.w3.org/2000/svg"
   xmlns="http://www.w3.org/2000/svg"
   xmlns:sodipodi="http://sodipodi.sourceforge.net/DTD/sodipodi-0.dtd"
   xmlns:inkscape="http://www.inkscape.org/namespaces/inkscape"
   width="9.2604198mm"
   height="16.364071mm"
   viewBox="0 0 9.2604198 16.364071"
   version="1.1"
   id="svg8"
   inkscape:version="0.92.5 (2060ec1f9f, 2020-04-08)"
   sodipodi:docname="mic.svg">
  <defs
     id="defs2" />
  <sodipodi:namedview
     id="base"
     pagecolor="#ffffff"
     bordercolor="#666666"
     borderopacity="1.0"
     inkscape:pageopacity="0.0"
     inkscape:pageshadow="2"
     inkscape:zoom="8"
     inkscape:cx="0.18107426"
     inkscape:cy="24.757443"
     inkscape:document-units="mm"
     inkscape:current-layer="layer1"
     showgrid="true"
     fit-margin-top="0"
     fit-margin-left="0"
     fit-margin-right="0"
     fit-margin-bottom="0"
     inkscape:window-width="1680"
     inkscape:window-height="986"
     inkscape:window-x="0"
     inkscape:window-y="27"
     inkscape:window-maximized="1">
    <inkscape:grid
       type="xygrid"
       id="grid815"
       originx="0"
       originy="0" />
  </sodipodi:namedview>
  <metadata
     id="metadata5">
    <rdf:RDF>
      <cc:Work
         rdf:about="">
        <dc:format>image/svg+xml</dc:format>
        <dc:type
           rdf:resource="http://purl.org/dc/dcmitype/StillImage" />
        <dc:title></dc:title>
      </cc:Work>
    </rdf:RDF>
  </metadata>
  <g
     inkscape:label="Ebene 1"
     inkscape:groupmode="layer"
     id="layer1"
     transform="translate(0,-280.63593)">
    <path
       style="fill:#800000;fill-opacity:1;stroke:none;stroke-width:0.26458171px;stroke-linecap:butt;stroke-linejoin:miter;stroke-opacity:1"
       d="m 0,285.88764 v 2.64579 c 0,0 0,3.9687 3.9687507,3.9687 h 1.3229172 c 0,0 3.968751,0 3.968751,-3.9687 l 1e-6,-2.64579 H 7.9375016 v 2.64579 c 0,0 -1.029e-4,2.68089 -2.6458338,2.6575 l -1.3229172,-0.0117 c 0,0 -2.6458335,0 -2.6458335,-2.64581 v -2.64579 z"
       id="path841"
       inkscape:connector-curvature="0"
       sodipodi:nodetypes="ccscscccscscc" />
    <path
       style="fill:#800000;fill-opacity:1;stroke:none;stroke-width:0.26458171px;stroke-linecap:butt;stroke-linejoin:miter;stroke-opacity:1"
       d="m 1.5875,288.53333 c 0,0 0,2.38125 2.4060554,2.3896 l 1.2981113,-0.008 c 0,0 2.3796344,-3.5e-4 2.3803997,-2.38154 l 8.503e-4,-2.64554 v -3.43958 c 0,0 0,-1.81234 -2.3987888,-1.81234 H 3.9512107 c 0,0 -2.3002143,6e-5 -2.3151042,1.85207 z"
       id="path843"
       inkscape:connector-curvature="0"
       sodipodi:nodetypes="cccsccscsc" />
    <path
       style="fill:#800000;fill-opacity:1;stroke:none;stroke-width:0.26458171px;stroke-linecap:butt;stroke-linejoin:miter;stroke-opacity:1"
       d="m 3.96875,292.50208 1.7e-6,3.17502 H 1.3229181 V 297 h 6.6145846 v -1.3229 H 5.2916689 l -2.2e-6,-3.17502 z"
       id="path845"
       inkscape:connector-curvature="0"
       sodipodi:nodetypes="ccccccccc" />
  </g>
</svg>
