<?xml version="1.0" encoding="UTF-8" standalone="no"?>
<svg
   xmlns:dc="http://purl.org/dc/elements/1.1/"
   xmlns:cc="http://creativecommons.org/ns#"
   xmlns:rdf="http://www.w3.org/1999/02/22-rdf-syntax-ns#"
   xmlns:svg="http://www.w3.org/2000/svg"
   xmlns="http://www.w3.org/2000/svg"
   xmlns:sodipodi="http://sodipodi.sourceforge.net/DTD/sodipodi-0.dtd"
   xmlns:inkscape="http://www.inkscape.org/namespaces/inkscape"
   viewBox="0 0 45.996002 46"
   width="45.996002"
   height="46"
   version="1.1"
   id="svg4"
   sodipodi:docname="icons8-settings.svg"
   style="fill:#000000"
   inkscape:version="0.92.5 (2060ec1f9f, 2020-04-08)">
  <metadata
     id="metadata10">
    <rdf:RDF>
      <cc:Work
         rdf:about="">
        <dc:format>image/svg+xml</dc:format>
        <dc:type
           rdf:resource="http://purl.org/dc/dcmitype/StillImage" />
        <dc:title></dc:title>
      </cc:Work>
    </rdf:RDF>
  </metadata>
  <defs
     id="defs8" />
  <sodipodi:namedview
     pagecolor="#ffffff"
     bordercolor="#666666"
     borderopacity="1"
     objecttolerance="10"
     gridtolerance="10"
     guidetolerance="10"
     inkscape:pageopacity="0"
     inkscape:pageshadow="2"
     inkscape:window-width="1680"
     inkscape:window-height="986"
     id="namedview6"
     showgrid="true"
     fit-margin-top="0"
     fit-margin-left="0"
     fit-margin-right="0"
     fit-margin-bottom="0"
     inkscape:zoom="13.350176"
     inkscape:cx="25.040857"
     inkscape:cy="20.829081"
     inkscape:window-x="0"
     inkscape:window-y="27"
     inkscape:window-maximized="1"
     inkscape:current-layer="svg4">
    <inkscape:grid
       type="xygrid"
       id="grid817"
       originx="-2.002"
       originy="-2" />
  </sodipodi:namedview>
  <path
     d="m 45.158,19.221 -5.91,-0.966 C 38.902,17.069 38.429,15.929 37.837,14.85 l 3.45,-4.917 C 41.566,9.536 41.518,8.995 41.175,8.651 L 37.286,4.764 C 36.939,4.418 36.393,4.373 35.995,4.66 L 31.152,8.141 C 30.063,7.539 28.913,7.061 27.72,6.714 L 26.689,0.828 C 26.605,0.35 26.19,0 25.704,0 h -5.5 c -0.49,0 -0.908,0.355 -0.987,0.839 l -0.956,5.854 c -1.2,0.345 -2.352,0.818 -3.437,1.412 L 9.994,4.655 C 9.595,4.37 9.052,4.416 8.705,4.761 L 4.818,8.648 C 4.475,8.991 4.427,9.531 4.706,9.928 l 3.399,4.863 C 7.5,15.886 7.018,17.045 6.667,18.251 L 0.836,19.222 C 0.354,19.302 0,19.72 0,20.208 v 5.5 c 0,0.485 0.348,0.9 0.825,0.985 l 5.831,1.034 c 0.349,1.203 0.831,2.362 1.438,3.46 L 4.653,36 c -0.284,0.397 -0.239,0.942 0.106,1.289 l 3.888,3.891 c 0.343,0.343 0.884,0.391 1.281,0.112 l 4.87,-3.411 c 1.093,0.601 2.248,1.078 3.445,1.424 l 0.976,5.861 C 19.298,45.647 19.715,46 20.204,46 h 5.5 c 0.485,0 0.9,-0.348 0.984,-0.825 l 1.045,-5.89 c 1.199,-0.353 2.348,-0.833 3.43,-1.435 l 4.905,3.441 c 0.398,0.281 0.938,0.232 1.282,-0.111 l 3.888,-3.891 c 0.346,-0.347 0.391,-0.894 0.104,-1.292 L 37.844,31.14 c 0.593,-1.08 1.064,-2.222 1.407,-3.408 l 5.918,-1.039 c 0.479,-0.084 0.827,-0.5 0.827,-0.985 v -5.5 C 45.997,19.718 45.642,19.3 45.158,19.221 Z M 22.998,30 c -3.866,0 -7,-3.134 -7,-7 0,-3.866 3.134,-7 7,-7 3.866,0 7,3.134 7,7 0,3.866 -3.134,7 -7,7 z"
     id="path2"
     inkscape:connector-curvature="0"
     style="fill:#ffffff;fill-opacity:1;stroke:none;stroke-opacity:1" />
</svg>
